<svg xmlns="http://www.w3.org/2000/svg" viewBox="0 0 122.88 84.93"><path d="M79.13 52.91c1.6-.3 3.23-.26 4.78.08 6.37 1.42 10.25 7.58 8.48 13.92-.58 2.07-1.72 4.02-3.33 5.63 3.52-.95 6.58-2.24 10.7-4.87 7.2-4.59 12.06-10.49 14.75-16.8 2.06-4.85 2.85-9.95 2.43-14.92a30.79 30.79 0 00-4.74-14.05c-3.4-5.34-8.56-9.83-15.33-12.71-3.9-1.66-8.71-2.67-13.66-3.11-5.49-.49-11.13-.28-15.9.52-2.45.41-4.49 1.3-5.95 2.63-1.28 1.18-2.14 2.76-2.4 4.73-.96 7.19 0 14.78-.52 22.04-.23 3.16-.39 5.48 2.9 5.85 1.2.13 2.3.08 3.29-.14 2.21-.47 3.96-1.77 5.24-3.51 1.37-1.88 2.21-4.29 2.49-6.8.19-1.7.12-3.44-.21-5.08-.42-1.52.46-3.1 1.98-3.56C81 20.7 75.27 36.05 88.08 36.41c.37.01.74.02.98.03 1.61.05 2.87 1.4 2.82 3a2.908 2.908 0 01-3 2.82c-.43-.01-.7-.02-.96-.03-5.63-.16-8.61-.24-11.25-4.39-.56 1.35-1.26 2.63-2.11 3.8-.35.48-.72.92-1.12 1.32 1.47.81 2.77 1.94 3.76 3.37.09.12.17.25.26.38 1.23 1.93 1.76 4.07 1.67 6.2zm.77 26.02l-5.85 3.89c-4.54 3.01-9.23 2.52-12.71.21-1.34-.88-2.48-2.03-3.36-3.35-.89-1.33-1.51-2.84-1.79-4.43-.12-.67-.18-1.35-.17-2.04-1.22.15-2.45.1-3.63-.14-2.8-.56-5.38-2.14-7.07-4.57l-.26-.38c-1.68-2.64-2.05-5.69-1.33-8.54.16-.61.36-1.21.62-1.8-2.03.44-4.08.39-5.99-.11-3.07-.81-5.76-2.75-7.36-5.67-1.61-2.94-1.79-6.28-.81-9.3.97-2.96 3.08-5.63 6.09-7.28 6.22-3.4 7.06-3.76 7.89-4.12.62-.27 1.24-.53 4.94-2.53l-36.53-.04v.01-.01c-3.44 0-6.56-1.33-8.83-3.47-5.01-4.72-5.01-12.39.01-17.11C6.05 6.02 9.17 4.7 12.61 4.7v-.01.01l42.63.04v-.01c.67 0 1.29.23 1.79.61.14-.14.28-.27.42-.4 2.31-2.12 5.38-3.49 8.91-4.09C71.55-.02 77.71-.26 83.72.28c5.54.49 10.97 1.64 15.43 3.54 7.89 3.36 13.94 8.65 17.95 14.95a36.627 36.627 0 015.65 16.69c.49 5.88-.44 11.94-2.89 17.69-3.12 7.34-8.72 14.15-16.98 19.42-7.6 4.85-11.82 5.67-20.06 7.27l-.17.04a2.89 2.89 0 01-2.75-.95zm-4.3-18.06c-.58.6-1.24 1.16-1.95 1.66l-11.07 7.72c-.88 1.33-1.12 2.74-.89 4.03.15.82.47 1.61.94 2.31s1.08 1.32 1.78 1.79c1.75 1.16 4.16 1.38 6.55-.21l12.94-8.6c1.58-1.05 2.66-2.54 3.11-4.15.9-3.24-1.06-6.27-4.31-6.99a6.186 6.186 0 00-4.53.73c-.11.07-.18.12-.22.14l-2.35 1.57zm-13.67 2.38l10.02-6.66c.69-.82 1.17-1.75 1.41-2.72.36-1.42.2-2.91-.61-4.17-.04-.06-.08-.12-.12-.19-.84-1.2-2.14-1.99-3.58-2.28a5.947 5.947 0 00-4.36.79c-.07.05-.14.09-.21.14l-12.44 8.68c-1.5 1.05-2.51 2.53-2.91 4.09-.36 1.42-.2 2.92.61 4.17.04.07.08.13.12.19.84 1.2 2.14 1.99 3.58 2.28 1.45.29 3.02.06 4.36-.79.07-.05.14-.09.21-.14l.53-.37c.89-1.07 2-2.1 3.39-3.02zM35.74 44.5c-.51 1.56-.42 3.25.37 4.71.79 1.44 2.14 2.4 3.7 2.81 1.67.43 3.55.24 5.27-.65l9.96-5.21a12.15 12.15 0 01-3.3-3.71c-1.18-2.03-1.86-4.49-1.98-7.43-2.17 1.15-2.74 1.4-3.3 1.63-.74.31-1.47.63-7.39 3.87-1.65.91-2.81 2.36-3.33 3.98zM7.75 21.02c1.24 1.17 2.95 1.89 4.84 1.9v-.02.01l39.72.04.01-12.4-39.72-.04v.01-.01c-1.89 0-3.61.72-4.85 1.88-2.56 2.42-2.57 6.21 0 8.63z"/></svg>