<svg aria-hidden="true" style="position: absolute; width: 0; height: 0; overflow: hidden;" version="1.1" xmlns="http://www.w3.org/2000/svg" xmlns:xlink="http://www.w3.org/1999/xlink">
<defs>
<symbol id="icon-symbol-defs" viewBox="0 0 32 32">
<path fill="#e3f2fd" style="fill: var(--color16, #e3f2fd)" d="M10 15.333h12v1.333h-12zM10 18h12v1.333h-12zM10 20.667h12v1.333h-12zM10 23.333h6.667v1.333h-6.667z"></path>
</symbol>
<symbol id="icon-visual-studio-code" viewBox="0 0 33 32">
<path fill="#2489ca" style="fill: var(--color1, #2489ca)" d="M0.779 11.394s-0.779-0.562 0.156-1.311l2.178-1.948s0.623-0.656 1.282-0.084l20.099 15.217v7.297s-0.010 1.146-1.48 1.019z"></path>
<path fill="#1070b3" style="fill: var(--color2, #1070b3)" d="M5.96 16.097l-5.181 4.71s-0.532 0.396 0 1.104l2.405 2.188s0.571 0.613 1.415-0.084l5.492-4.165z"></path>
<path fill="#0877b9" style="fill: var(--color3, #0877b9)" d="M15.055 16.136l9.501-7.255-0.062-7.258s-0.406-1.584-1.759-0.76l-12.643 11.507z"></path>
<path fill="#3c99d4" style="fill: var(--color4, #3c99d4)" d="M23.014 31.594c0.552 0.565 1.221 0.38 1.221 0.38l7.404-3.648c0.948-0.646 0.815-1.448 0.815-1.448v-21.787c0-0.958-0.98-1.289-0.98-1.289l-6.417-3.093c-1.402-0.867-2.321 0.156-2.321 0.156s1.182-0.85 1.759 0.76v28.808c0 0.198-0.042 0.393-0.127 0.568-0.169 0.341-0.536 0.659-1.415 0.526z"></path>
</symbol>
<symbol id="icon-sass-logo" viewBox="0 0 43 32">
<path fill="#cf649a" style="fill: var(--color5, #cf649a)" d="M36.717 18.383c-1.492 0.008-2.783 0.367-3.867 0.9-0.4-0.792-0.8-1.483-0.867-2-0.075-0.6-0.167-0.967-0.075-1.683s0.508-1.733 0.508-1.817c-0.008-0.075-0.092-0.442-0.95-0.45s-1.6 0.167-1.683 0.392-0.25 0.742-0.358 1.275c-0.15 0.783-1.717 3.558-2.608 5.017-0.292-0.567-0.542-1.067-0.592-1.467-0.075-0.6-0.167-0.967-0.075-1.683s0.508-1.733 0.508-1.817c-0.008-0.075-0.092-0.442-0.95-0.45s-1.6 0.167-1.683 0.392-0.175 0.758-0.358 1.275c-0.175 0.517-2.258 5.15-2.8 6.358-0.275 0.617-0.517 1.108-0.692 1.442s-0.008 0.025-0.025 0.058c-0.15 0.283-0.233 0.442-0.233 0.442v0.008c-0.117 0.208-0.242 0.408-0.3 0.408-0.042 0-0.125-0.558 0.017-1.325 0.308-1.608 1.058-4.117 1.050-4.208 0-0.042 0.142-0.483-0.483-0.708-0.608-0.225-0.825 0.15-0.875 0.15s-0.092 0.133-0.092 0.133 0.675-2.825-1.292-2.825c-1.233 0-2.933 1.342-3.775 2.567-0.533 0.292-1.667 0.908-2.867 1.567-0.458 0.25-0.933 0.517-1.383 0.758l-0.092-0.1c-2.383-2.542-6.792-4.342-6.608-7.758 0.067-1.242 0.5-4.517 8.467-8.483 6.525-3.25 11.75-2.358 12.658-0.375 1.292 2.833-2.792 8.1-9.575 8.858-2.583 0.292-3.942-0.708-4.283-1.083-0.358-0.392-0.408-0.408-0.542-0.333-0.217 0.117-0.083 0.467 0 0.675 0.2 0.525 1.033 1.458 2.45 1.925 1.242 0.408 4.275 0.633 7.942-0.783 4.108-1.592 7.317-6.008 6.375-9.7-0.958-3.758-7.192-4.992-13.083-2.9-3.508 1.25-7.308 3.2-10.042 5.758-3.25 3.033-3.767 5.683-3.55 6.783 0.758 3.925 6.167 6.483 8.333 8.375-0.108 0.058-0.208 0.117-0.3 0.167-1.083 0.533-5.208 2.692-6.242 4.975-1.167 2.583 0.183 4.442 1.083 4.692 2.783 0.775 5.633-0.617 7.175-2.908 1.533-2.292 1.35-5.267 0.642-6.625l-0.025-0.050 0.85-0.5c0.55-0.325 1.092-0.625 1.567-0.883-0.267 0.725-0.458 1.583-0.558 2.833-0.117 1.467 0.483 3.367 1.275 4.117 0.35 0.325 0.767 0.333 1.025 0.333 0.917 0 1.333-0.758 1.792-1.667 0.567-1.108 1.067-2.392 1.067-2.392s-0.625 3.475 1.083 3.475c0.625 0 1.25-0.808 1.533-1.225v0.008s0.017-0.025 0.050-0.083c0.028-0.040 0.061-0.092 0.092-0.145l0.008-0.014v-0.017c0.25-0.433 0.808-1.425 1.642-3.067 1.075-2.117 2.108-4.767 2.108-4.767s0.1 0.65 0.408 1.717c0.183 0.633 0.583 1.325 0.892 2-0.25 0.35-0.4 0.55-0.4 0.55l0.008 0.008c-0.2 0.267-0.425 0.55-0.658 0.833-0.85 1.017-1.867 2.175-2 2.508-0.158 0.392-0.125 0.683 0.183 0.917 0.225 0.167 0.625 0.2 1.050 0.167 0.767-0.050 1.3-0.242 1.567-0.358 0.417-0.15 0.892-0.375 1.35-0.708 0.833-0.617 1.342-1.492 1.292-2.658-0.025-0.642-0.233-1.275-0.492-1.875 0.075-0.108 0.15-0.217 0.225-0.333 1.317-1.925 2.333-4.042 2.333-4.042s0.1 0.65 0.408 1.717c0.158 0.542 0.475 1.133 0.758 1.717-1.233 1.008-2.008 2.175-2.275 2.942-0.492 1.417-0.108 2.058 0.617 2.208 0.325 0.067 0.792-0.083 1.142-0.233 0.433-0.142 0.958-0.383 1.442-0.742 0.833-0.617 1.633-1.475 1.592-2.633-0.025-0.533-0.167-1.058-0.358-1.558 1.050-0.433 2.408-0.683 4.133-0.475 3.708 0.433 4.442 2.75 4.3 3.717s-0.917 1.5-1.175 1.667c-0.258 0.158-0.342 0.217-0.317 0.333 0.033 0.175 0.15 0.167 0.375 0.133 0.308-0.050 1.95-0.792 2.017-2.575 0.1-2.292-2.075-4.792-5.933-4.767zM8.117 28.025c-1.225 1.342-2.95 1.85-3.683 1.417-0.792-0.458-0.483-2.433 1.025-3.858 0.917-0.867 2.108-1.667 2.892-2.158 0.175-0.108 0.442-0.267 0.758-0.458 0.050-0.033 0.083-0.050 0.083-0.050 0.058-0.033 0.125-0.075 0.192-0.117 0.558 2.033 0.025 3.817-1.267 5.225zM17.075 21.933c-0.425 1.042-1.325 3.717-1.867 3.567-0.467-0.125-0.75-2.15-0.092-4.15 0.333-1.008 1.042-2.208 1.458-2.675 0.675-0.75 1.408-1 1.592-0.692 0.217 0.4-0.825 3.3-1.092 3.95zM24.467 25.467c-0.183 0.092-0.35 0.158-0.425 0.108-0.058-0.033 0.075-0.158 0.075-0.158s0.925-0.992 1.292-1.45c0.208-0.267 0.458-0.575 0.725-0.925v0.1c0 1.2-1.15 2-1.667 2.325zM30.167 24.167c-0.133-0.1-0.117-0.408 0.333-1.375 0.175-0.383 0.575-1.025 1.267-1.633 0.083 0.25 0.133 0.492 0.125 0.717-0.008 1.5-1.075 2.058-1.725 2.292z"></path>
</symbol>
<symbol id="icon-microsoft-office" viewBox="0 0 101 32">
<path fill="#eb3c00" style="fill: var(--color6, #eb3c00)" d="M-0.001 25.814v-19.452l17.208-6.359 9.352 2.992v26.186l-9.352 2.819-17.208-6.186 17.208 2.071v-22.645l-11.223 2.619v15.338l-5.985 2.618zM44.886 25.95c-2.708 0-4.878-0.893-6.507-2.679-1.63-1.784-2.444-4.108-2.444-6.968 0-3.073 0.83-5.524 2.491-7.353s3.921-2.744 6.78-2.744c2.638 0 4.763 0.888 6.375 2.664 1.612 1.777 2.418 4.099 2.418 6.968 0 3.117-0.827 5.581-2.478 7.394s-3.862 2.718-6.634 2.718zM45.046 8.231c-2.007 0-3.636 0.724-4.889 2.172s-1.879 3.348-1.879 5.701 0.611 4.247 1.832 5.682 2.813 2.151 4.776 2.151c2.095 0 3.748-0.684 4.955-2.051s1.812-3.281 1.812-5.741c0-2.523-0.587-4.472-1.759-5.848s-2.788-2.066-4.848-2.066zM61.959 5.14c-1.235 0-2.261 0.421-3.086 1.251s-1.239 1.96-1.239 3.39v2.21h-2.326v1.87h2.326v11.771h2.175v-11.771h5.318v11.771h2.175v-11.771h3.192v-1.87h-3.192v-2.104c0-1.927 0.764-2.887 2.291-2.887 0.542 0 1.024 0.111 1.449 0.351v-1.964c-0.39-0.16-0.912-0.246-1.578-0.246-1.235 0-2.272 0.421-3.098 1.251s-1.239 1.961-1.239 3.39v2.21h-5.319v-2.104c0-1.927 0.763-2.887 2.291-2.887 0.541 0 1.023 0.111 1.449 0.351v-1.964c-0.391-0.161-0.924-0.247-1.59-0.247zM73.67 8.523c-0.008 0-0.016 0-0.025 0-0.38 0-0.724-0.153-0.974-0.4l0 0c-0.275-0.267-0.413-0.604-0.413-1.012s0.138-0.748 0.413-1.019c0.249-0.251 0.594-0.407 0.975-0.407 0.009 0 0.017 0 0.026 0l-0.001-0c0.4 0 0.739 0.135 1.019 0.407 0.28 0.271 0.419 0.61 0.419 1.019 0 0.007 0 0.014 0 0.022 0 0.384-0.161 0.731-0.419 0.977l-0.001 0.001c-0.254 0.255-0.605 0.413-0.993 0.413-0.009 0-0.018-0-0.027-0l0.001 0zM74.735 25.628h-2.185v-13.641h2.184v13.641zM87.147 25.002c-1.047 0.63-2.292 0.946-3.73 0.946-1.945 0-3.515-0.633-4.709-1.899s-1.793-2.905-1.793-4.922c0-2.247 0.644-4.052 1.932-5.415s3.007-2.045 5.156-2.045c1.198 0 2.256 0.222 3.17 0.667v2.237c-1.012-0.71-2.096-1.066-3.25-1.066-1.395 0-2.538 0.5-3.431 1.499s-1.338 2.311-1.338 3.936c0 1.599 0.419 2.86 1.258 3.784 0.84 0.923 1.965 1.385 3.378 1.385 1.189 0 2.31-0.395 3.357-1.185v2.078zM100.502 19.354h-9.631c0.035 1.518 0.444 2.69 1.225 3.517 0.783 0.825 1.857 1.238 3.225 1.238 1.536 0 2.949-0.506 4.236-1.519v2.051c-1.198 0.87-2.784 1.306-4.755 1.306-1.927 0-3.442-0.619-4.542-1.859-1.102-1.239-1.652-2.981-1.652-5.229 0-2.123 0.602-3.852 1.805-5.189s2.698-2.005 4.483-2.005 3.166 0.577 4.143 1.732c0.977 1.155 1.465 2.758 1.465 4.809v1.146zM98.265 17.502c-0.009-1.261-0.313-2.242-0.913-2.944s-1.432-1.053-2.497-1.053c-1.031 0-1.905 0.369-2.625 1.106s-1.163 1.701-1.331 2.89h7.366z"></path>
</symbol>
<symbol id="icon-hand-finger-left" viewBox="0 0 46 32">
<path d="M29.815 19.935c0.603-0.113 1.217-0.098 1.801 0.030 2.4 0.535 3.862 2.856 3.195 5.245-0.219 0.78-0.648 1.515-1.255 2.121 1.326-0.358 2.479-0.844 4.032-1.835 2.713-1.729 4.544-3.952 5.558-6.33 0.776-1.827 1.074-3.749 0.916-5.622-0.168-1.984-0.811-3.789-1.813-5.339l0.028 0.045c-1.281-2.012-3.225-3.704-5.776-4.789-1.469-0.625-3.282-1.006-5.147-1.172-2.069-0.185-4.194-0.106-5.991 0.196-0.923 0.154-1.692 0.49-2.242 0.991-0.482 0.445-0.806 1.040-0.904 1.782-0.362 2.709 0 5.569-0.196 8.304-0.087 1.191-0.147 2.065 1.093 2.204 0.452 0.049 0.867 0.030 1.24-0.053 0.833-0.177 1.492-0.667 1.974-1.322 0.516-0.708 0.833-1.616 0.938-2.562 0.072-0.641 0.045-1.296-0.079-1.914-0.158-0.573 0.173-1.168 0.746-1.341 2.588-0.776 0.43 5.007 5.256 5.143 0.139 0.004 0.279 0.008 0.369 0.011 0.607 0.019 1.081 0.527 1.063 1.13-0.018 0.591-0.502 1.063-1.095 1.063-0.012 0-0.025-0-0.037-0.001l0.002 0c-0.162-0.004-0.264-0.008-0.362-0.011-2.121-0.060-3.244-0.090-4.239-1.654-0.211 0.509-0.475 0.991-0.795 1.432-0.132 0.181-0.271 0.347-0.422 0.497 0.554 0.305 1.044 0.731 1.417 1.27 0.034 0.045 0.064 0.094 0.098 0.143 0.463 0.727 0.663 1.534 0.629 2.336zM30.105 29.739l-2.204 1.466c-1.711 1.134-3.478 0.949-4.789 0.079-0.505-0.332-0.934-0.765-1.266-1.262-0.335-0.501-0.569-1.070-0.674-1.669-0.045-0.252-0.068-0.509-0.064-0.769-0.46 0.057-0.923 0.038-1.368-0.053-1.055-0.211-2.027-0.806-2.664-1.722l-0.098-0.143c-0.633-0.995-0.772-2.144-0.501-3.218 0.060-0.23 0.136-0.456 0.234-0.678-0.765 0.166-1.537 0.147-2.257-0.041-1.157-0.305-2.17-1.036-2.773-2.136-0.607-1.108-0.674-2.366-0.305-3.504 0.365-1.115 1.161-2.121 2.295-2.743 2.344-1.281 2.66-1.417 2.973-1.552 0.234-0.102 0.467-0.2 1.861-0.953l-13.764-0.015c-1.296 0-2.472-0.501-3.327-1.307-1.888-1.778-1.888-4.668 0.004-6.447 0.863-0.803 2.038-1.3 3.334-1.3v0l16.062 0.011c0.252 0 0.486 0.087 0.674 0.23 0.053-0.053 0.105-0.102 0.158-0.151 0.87-0.799 2.027-1.315 3.357-1.541 1.956-0.328 4.276-0.418 6.541-0.215 2.087 0.185 4.133 0.618 5.814 1.334 2.973 1.266 5.252 3.259 6.763 5.633 1.16 1.788 1.926 3.931 2.125 6.237l0.004 0.052c0.185 2.215-0.166 4.499-1.089 6.665-1.176 2.766-3.286 5.331-6.398 7.317-2.864 1.827-4.454 2.136-7.558 2.739l-0.064 0.015c-0.063 0.013-0.136 0.021-0.211 0.021-0.329 0-0.624-0.146-0.824-0.377l-0.001-0.001zM28.485 22.935c-0.219 0.226-0.467 0.437-0.735 0.625l-4.171 2.909c-0.332 0.501-0.422 1.032-0.335 1.518 0.057 0.309 0.177 0.607 0.354 0.87s0.407 0.497 0.671 0.674c0.659 0.437 1.567 0.52 2.468-0.079l4.876-3.24c0.595-0.396 1.002-0.957 1.172-1.564 0.339-1.221-0.399-2.362-1.624-2.634-0.153-0.036-0.329-0.056-0.509-0.056-0.442 0-0.856 0.123-1.208 0.337l0.010-0.006c-0.041 0.026-0.068 0.045-0.083 0.053l-0.885 0.592zM23.334 23.831l3.775-2.509c0.26-0.309 0.441-0.659 0.531-1.025 0.136-0.535 0.075-1.096-0.23-1.571-0.015-0.023-0.030-0.045-0.045-0.072-0.317-0.452-0.806-0.75-1.349-0.859-0.135-0.029-0.291-0.046-0.451-0.046-0.442 0-0.854 0.128-1.201 0.349l0.009-0.005c-0.026 0.019-0.053 0.034-0.079 0.053l-4.687 3.27c-0.565 0.396-0.946 0.953-1.096 1.541-0.136 0.535-0.075 1.1 0.23 1.571 0.015 0.026 0.030 0.049 0.045 0.072 0.317 0.452 0.806 0.75 1.349 0.859 0.546 0.109 1.138 0.023 1.643-0.298 0.026-0.019 0.053-0.034 0.079-0.053l0.2-0.139c0.335-0.403 0.754-0.791 1.277-1.138zM13.466 16.767c-0.192 0.588-0.158 1.225 0.139 1.775 0.298 0.543 0.806 0.904 1.394 1.059 0.629 0.162 1.338 0.090 1.986-0.245l3.753-1.963c-0.505-0.377-0.921-0.842-1.232-1.376l-0.012-0.022c-0.445-0.765-0.701-1.692-0.746-2.799-0.818 0.433-1.032 0.527-1.243 0.614-0.279 0.117-0.554 0.237-2.784 1.458-0.622 0.343-1.059 0.889-1.255 1.5zM2.92 7.92c0.467 0.441 1.111 0.712 1.824 0.716v-0.004l14.966 0.015 0.004-4.672-14.966-0.015c-0.712 0-1.36 0.271-1.827 0.708-0.965 0.912-0.968 2.34 0 3.252z"></path>
</symbol>
<symbol id="icon-down_icon" viewBox="0 0 32 32">
<path stroke-linejoin="miter" stroke-linecap="square" stroke-miterlimit="10" stroke-width="3" d="M27.75 10.125l-11.75 11.75M16 21.875l-11.75-11.75"></path>
</symbol>
<symbol id="icon-webpack-icon" viewBox="0 0 32 32">
<path fill="#fff" style="fill: var(--color7, #fff)" d="M16 0l14.141 8v16l-14.141 8-14.141-8v-16z"></path>
<path fill="#8ed6fb" style="fill: var(--color8, #8ed6fb)" d="M27.616 23.448l-11.149 6.307v-4.912l6.947-3.821 4.203 2.427zM28.379 22.757v-13.189l-4.080 2.355v8.477l4.080 2.357zM4.339 23.448l11.149 6.307v-4.912l-6.947-3.821-4.203 2.427zM3.576 22.757v-13.189l4.080 2.355v8.477l-4.080 2.357zM4.053 8.715l11.435-6.469v4.749l-7.381 4.061-4.053-2.341zM27.901 8.715l-11.435-6.469v4.749l7.381 4.061 4.053-2.341z"></path>
<path fill="#1c78c0" style="fill: var(--color9, #1c78c0)" d="M15.488 23.725l-6.853-3.768v-7.467l6.853 3.957v7.277zM16.467 23.725l6.853-3.768v-7.467l-6.853 3.957v7.277zM9.099 11.627l6.88-3.784 6.88 3.784-6.88 3.973-6.88-3.973z"></path>
</symbol>
<symbol id="icon-trello" viewBox="0 0 32 32">
<path fill="#000" style="fill: var(--color10, #000)" d="M3.125 0h25.75c1.726 0 3.125 1.399 3.125 3.125v25.75c0 1.726-1.399 3.125-3.125 3.125h-25.75c-1.726 0-3.125-1.399-3.125-3.125v-25.75c0-1.726 1.399-3.125 3.125-3.125z"></path>
<path fill="#fff" style="fill: var(--color7, #fff)" d="M19.58 4.16h6.76c0.828 0 1.5 0.672 1.5 1.5v11c0 0.828-0.672 1.5-1.5 1.5h-6.76c-0.828 0-1.5-0.672-1.5-1.5v-11c0-0.828 0.672-1.5 1.5-1.5z"></path>
<path fill="#fff" style="fill: var(--color7, #fff)" d="M5.66 4.16h6.76c0.828 0 1.5 0.672 1.5 1.5v19c0 0.828-0.672 1.5-1.5 1.5h-6.76c-0.828 0-1.5-0.672-1.5-1.5v-19c0-0.828 0.672-1.5 1.5-1.5z"></path>
</symbol>
<symbol id="icon-phpstorm-icon" viewBox="0 0 32 32">
<path fill="#000" style="fill: var(--color10, #000)" d="M18.103 6.949l-1.509-4.571-11.154-2.377-5.44 6.171 17.006 8.686z"></path>
<path fill="#000" style="fill: var(--color10, #000)" d="M12.8 18.926l-0.32-9.509-12.48-3.246 3.063 18.331 9.737-0.091z"></path>
<path fill="#000" style="fill: var(--color10, #000)" d="M10.103 18.743l0.594-7.543 9.051-9.28 8.091 1.463 4.16 10.377-4.343 4.297-7.086-1.143-4.389 4.617z"></path>
<path fill="#000" style="fill: var(--color10, #000)" d="M19.749 1.92l-12.983 11.52 2.514 14.811 10.789 3.749 11.931-7.131z"></path>
<path fill="#000" style="fill: var(--color10, #000)" d="M6.126 6.126h19.749v19.749h-19.749z"></path>
<path fill="#fff" style="fill: var(--color7, #fff)" d="M8 22.171h7.406v1.234h-7.406zM7.909 8.686h3.337c1.966 0 3.154 1.143 3.154 2.834v0.046c0 1.92-1.463 2.88-3.337 2.88h-1.371v2.469h-1.783v-8.229zM11.154 12.8c0.914 0 1.417-0.549 1.417-1.234v-0.046c0-0.823-0.549-1.234-1.463-1.234h-1.371v2.514h1.417zM14.857 15.726l1.051-1.28c0.731 0.594 1.509 1.006 2.469 1.006 0.731 0 1.189-0.274 1.189-0.777v-0.046c0-0.457-0.274-0.686-1.646-1.051-1.646-0.411-2.743-0.869-2.743-2.514v-0.046c0-1.509 1.189-2.469 2.88-2.469 1.189 0 2.24 0.366 3.063 1.051l-0.96 1.371c-0.731-0.503-1.463-0.823-2.149-0.823s-1.051 0.32-1.051 0.731v0.046c0 0.549 0.366 0.731 1.783 1.097 1.646 0.457 2.606 1.051 2.606 2.469v0.046c0 1.646-1.234 2.56-3.017 2.56-1.234-0.046-2.469-0.503-3.474-1.371z"></path>
</symbol>
<symbol id="icon-logo-javascript" viewBox="0 0 32 32">
<path fill="#f0db4f" style="fill: var(--color11, #f0db4f)" d="M0 0h32v32h-32z"></path>
<path fill="#323330" style="fill: var(--color12, #323330)" d="M29.381 24.368c-0.234-1.46-1.186-2.686-4.006-3.83-0.979-0.45-2.071-0.773-2.397-1.515-0.116-0.432-0.131-0.675-0.058-0.937 0.21-0.849 1.223-1.113 2.026-0.87 0.517 0.173 1.007 0.572 1.302 1.208 1.381-0.894 1.378-0.888 2.342-1.503-0.353-0.548-0.541-0.8-0.773-1.034-0.83-0.928-1.962-1.405-3.772-1.369-0.313 0.040-0.63 0.082-0.943 0.122-0.903 0.228-1.764 0.703-2.269 1.338-1.515 1.719-1.083 4.727 0.76 5.965 1.816 1.363 4.484 1.673 4.824 2.948 0.332 1.56-1.147 2.065-2.616 1.886-1.083-0.225-1.685-0.776-2.336-1.776-1.198 0.694-1.198 0.694-2.43 1.402 0.292 0.639 0.599 0.928 1.089 1.481 2.318 2.351 8.119 2.236 9.159-1.323 0.043-0.122 0.322-0.937 0.097-2.193zM17.396 14.707h-2.993c0 2.586-0.012 5.153-0.012 7.738 0 1.646 0.085 3.154-0.182 3.617-0.438 0.909-1.573 0.797-2.090 0.62-0.526-0.259-0.794-0.627-1.104-1.147-0.085-0.149-0.149-0.265-0.17-0.274-0.812 0.496-1.621 0.995-2.433 1.491 0.405 0.83 1.001 1.551 1.764 2.020 1.141 0.684 2.674 0.894 4.277 0.526 1.043-0.304 1.944-0.934 2.415-1.892 0.681-1.256 0.535-2.777 0.529-4.459 0.015-2.744 0-5.487 0-8.24z"></path>
</symbol>
<symbol id="icon-billard" viewBox="0 0 32 32">
<path fill="#fff" style="fill: var(--color7, #fff)" d="M0 0h32v32h-32v-32z"></path>
<path fill="#000" style="fill: var(--color10, #000)" d="M19.485 21.644c1.92 0 3.486 1.566 3.486 3.486s-1.566 3.485-3.486 3.485-3.485-1.566-3.485-3.485c0-1.92 1.566-3.486 3.485-3.486z"></path>
<path fill="#fff" style="fill: var(--color7, #fff)" d="M20.287 22.506c0.696 0.12 1.605 0.9 1.806 1.74 0.226 0.819-0.468-0.475-1.465-0.393 0.084-0.608-0.186-1.019-0.341-1.347z"></path>
</symbol>
<symbol id="icon-google-docs-icon" viewBox="0 0 32 32">
<path fill="#2196f3" style="fill: var(--color13, #2196f3)" d="M24.667 30h-17.333c-1.105 0-2-0.895-2-2v0-24c0-1.105 0.895-2 2-2v0h12.667l6.667 6.667v19.333c0 1.105-0.895 2-2 2v0z"></path>
<path fill="#bbdefb" style="fill: var(--color14, #bbdefb)" d="M26.667 8.667h-6.667v-6.667z"></path>
<path fill="#1565c0" style="fill: var(--color15, #1565c0)" d="M20 8.667l6.667 6.667v-6.667z"></path>
<path fill="#e3f2fd" style="fill: var(--color16, #e3f2fd)" d="M10 15.333h12v1.333h-12zM10 18h12v1.333h-12zM10 20.667h12v1.333h-12zM10 23.333h6.667v1.333h-6.667z"></path>
</symbol>
<symbol id="icon-book" viewBox="0 0 36 32">
<path fill="#000" style="fill: var(--color10, #000)" d="M3.266 16.661l5.911-16.393 23.489 9.947-10.512 20.099c-0.861 1.645-3.37 2.223-4.443 1.125l-14.444-14.778z"></path>
<path fill="#000" style="fill: var(--color10, #000)" d="M17.393 29.594c0.855 1.882 2.651 1.882 3.293 0.684s8.938-18.047 8.938-18.047l-8.382 1.582c0 0-5.388 14.497-3.849 15.78z"></path>
<path fill="#000" style="fill: var(--color10, #000)" d="M29.624 12.231l-20.228-10.477-6.286 0.043 17.576 12.402 8.938-1.967z"></path>
<path fill="#520" style="fill: var(--color17, #520); stroke: var(--color17, #520)" stroke="#520" stroke-linejoin="miter" stroke-linecap="butt" stroke-miterlimit="4" stroke-width="1.9257" d="M7.942 1.711l19.201 11.076"></path>
<path fill="#520" style="fill: var(--color17, #520); stroke: var(--color17, #520)" stroke="#520" stroke-linejoin="miter" stroke-linecap="butt" stroke-miterlimit="4" stroke-width="1.9257" d="M6.127 1.777l18.474 11.547"></path>
<path fill="#000" style="fill: var(--color10, #000)" d="M18.847 31.86c-1.069-0.641-1.326-1.368-0.77-3.507s4.063-15.353 4.063-15.353l-18.603-13.001-3.293 13.77c-0.321 1.344-0.593 2.311 1.026 3.721l14.995 13.047c1.459 1.178 1.777 1.256 2.582 1.322z"></path>
<path fill="#000" style="fill: var(--color10, #000)" d="M21.372 23.592l0.869-2.65c0 0 2.732-0.952 5.051 0.248s0.497 4.14 2.732 4.14c2.236 0 3.809-0.455 2.857-2.691s-2.111-2.236-2.111-2.236c0 0 1.366-0.331 2.070-0.041 0.118-0.53-0.086-2.159-0.086-2.159s2.168 1.904 2.92 4.098c0.792 2.312 0.046 4.926-5.162 5.191-3.861 0.197-3.837-1.405-4.126-3.144s-4.931-0.675-5.013-0.758z"></path>
</symbol>
</defs>
</svg>
